# xmcd
#
# Track frame offsets:
#	150
#	19642
#	34538
#	90907
#	101175
#	120481
#	143140
#	161511
#	169972
#	184908
#	226864
#	237475
#	264318
#	280537
#	286156
#
# Disc length: 3931 seconds
#
# Revision: 1
# Processed by: cddbd v1.5.2PL0 Copyright (c) Steve Scherf et al.
# Submitted via: audiograbber 1.83.01
#
DISCID=bd0f590f
DTITLE=James BROWN - Sex Machine Live 
DYEAR=2006
DGENRE=funk
TTITLE0=J.Brown -  Sex Machine
TTITLE1=J.Brown -  I Got You (I Feel Good)
TTITLE2=J.Brown -  It's A Man's, Man's, Man's World
TTITLE3=J.Brown -  Papa's Got A Brand New Bag
TTITLE4=J.Brown -  Give It Up Or Turn It A Loose
TTITLE5=J.Brown -  It's Too Funky In Here
TTITLE6=J.Brown -  Gonna Have A Funky Good Tyme
TTITLE7=J.Brown -  Try Me
TTITLE8=J.Brown -  Get On The Good Foot
TTITLE9=J.Brown -  Prisoner Of Love
TTITLE10=J.Brown -  Get Up Offa That Thang
TTITLE11=J.Brown -  Georgia On My Mind
TTITLE12=J.Brown -  I Got The Feeling
TTITLE13=J.Brown -  Cold Sweat
TTITLE14=J.Brown -  I Can't Stand Myself (When You Touch Me)
EXTD=
EXTT0=
EXTT1=
EXTT2=
EXTT3=
EXTT4=
EXTT5=
EXTT6=
EXTT7=
EXTT8=
EXTT9=
EXTT10=
EXTT11=
EXTT12=
EXTT13=
EXTT14=
PLAYORDER=
